<svg xmlns="http://www.w3.org/2000/svg" style="display:none">
  <defs>
    <!-- Game Controller -->
    <symbol id="icon-controller" viewBox="0 -960 960 960">
      <path d="M182-200q-51 0-79-35.5T82-322l42-300q9-60 53.5-99T282-760h396q60 0 104.5 39t53.5 99l42 300q7 51-21 86.5T778-200q-21 0-39-7.5T706-230l-90-90H344l-90 90q-15 15-33 22.5t-39 7.5Zm16-86 114-114h336l114 114q2 2 16 6 11 0 17.5-6.5T800-304l-44-308q-4-29-26-48.5T678-680H282q-30 0-52 19.5T204-612l-44 308q-2 11 4.5 17.5T182-280q2 0 16-6Zm482-154q17 0 28.5-11.5T720-480q0-17-11.5-28.5T680-520q-17 0-28.5 11.5T640-480q0 17 11.5 28.5T680-440Zm-80-120q17 0 28.5-11.5T640-600q0-17-11.5-28.5T600-640q-17 0-28.5 11.5T560-600q0 17 11.5 28.5T600-560ZM310-440h60v-70h70v-60h-70v-70h-60v70h-70v60h70v70Zm170-40Z" fill="currentColor"/>
    </symbol>
    <!-- Trophy -->
    <symbol id="icon-trophy" viewBox="0 -960 960 960">
        <path d="M280-120v-80h160v-124q-49-11-87.5-41.5T296-442q-75-9-125.5-65.5T120-640v-40q0-33 23.5-56.5T200-760h80v-80h400v80h80q33 0 56.5 23.5T840-680v40q0 76-50.5 132.5T664-442q-18 46-56.5 76.5T520-324v124h160v80H280Zm0-408v-152h-80v40q0 38 22 68.5t58 43.5Zm200 128q50 0 85-35t35-85v-240H360v240q0 50 35 85t85 35Zm200-128q36-13 58-43.5t22-68.5v-40h-80v152Zm-200-52Z" fill="currentColor"/>
    </symbol>
    <!-- Stats-->
    <symbol id="icon-stats" viewBox="0 -960 960 960">
        <path d="M560-680v-80h320v80H560Zm0 160v-80h320v80H560Zm0 160v-80h320v80H560Zm-240-40q-50 0-85-35t-35-85q0-50 35-85t85-35q50 0 85 35t35 85q0 50-35 85t-85 35ZM80-160v-76q0-21 10-40t28-30q45-27 95.5-40.5T320-360q56 0 106.5 13.5T522-306q18 11 28 30t10 40v76H80Zm86-80h308q-35-20-74-30t-80-10q-41 0-80 10t-74 30Zm154-240q17 0 28.5-11.5T360-520q0-17-11.5-28.5T320-560q-17 0-28.5 11.5T280-520q0 17 11.5 28.5T320-480Zm0-40Zm0 280Z" fill="currentColor"/>
    </symbol>
    <!--Player Icon-->
    <symbol id="player-icon-default" viewBox="0 0 16 16">
        <path d="M8 7C9.65685 7 11 5.65685 11 4C11 2.34315 9.65685 1 8 1C6.34315 1 5 2.34315 5 4C5 5.65685 6.34315 7 8 7Z" fill="currentColor"/>
        <path d="M14 12C14 10.3431 12.6569 9 11 9H5C3.34315 9 2 10.3431 2 12V15H14V12Z" fill="currentColor"/>
    </symbol>
    <!--Event-->
    <symbol id="icon-event" viewBox="0 -960 960 960">
        <path d="M200-80q-33 0-56.5-23.5T120-160v-560q0-33 23.5-56.5T200-800h40v-80h80v80h320v-80h80v80h40q33 0 56.5 23.5T840-720v560q0 33-23.5 56.5T760-80H200Zm0-80h560v-400H200v400Zm0-480h560v-80H200v80Zm0 0v-80 80Zm80 240v-80h400v80H280Zm0 160v-80h280v80H280Z" fill="currentColor"/>
    </symbol>
    <!-- Team -->
    <symbol id="icon-team" viewBox="0 -960 960 960">
      <path d="M0-240v-63q0-43 44-70t116-27q13 0 25 .5t23 2.5q-14 21-21 44t-7 48v65H0Zm240 0v-65q0-32 17.5-58.5T307-410q32-20 76.5-30t96.5-10q53 0 97.5 10t76.5 30q32 20 49 46.5t17 58.5v65H240Zm540 0v-65q0-26-6.5-49T754-397q11-2 22.5-2.5t23.5-.5q72 0 116 26.5t44 70.5v63H780Zm-455-80h311q-10-20-55.5-35T480-370q-55 0-100.5 15T325-320ZM160-440q-33 0-56.5-23.5T80-520q0-34 23.5-57t56.5-23q34 0 57 23t23 57q0 33-23 56.5T160-440Zm640 0q-33 0-56.5-23.5T720-520q0-34 23.5-57t56.5-23q34 0 57 23t23 57q0 33-23 56.5T800-440Zm-320-40q-50 0-85-35t-35-85q0-51 35-85.5t85-34.5q51 0 85.5 34.5T600-600q0 50-34.5 85T480-480Zm0-80q17 0 28.5-11.5T520-600q0-17-11.5-28.5T480-640q-17 0-28.5 11.5T440-600q0 17 11.5 28.5T480-560Zm1 240Zm-1-280Z" fill="currentColor"/>
    </symbol>
    <!--User-->
    <symbol id="user-default" viewBox="0 -960 960 960">
        <path d="M234-276q51-39 114-61.5T480-360q69 0 132 22.5T726-276q35-41 54.5-93T800-480q0-133-93.5-226.5T480-800q-133 0-226.5 93.5T160-480q0 59 19.5 111t54.5 93Zm246-164q-59 0-99.5-40.5T340-580q0-59 40.5-99.5T480-720q59 0 99.5 40.5T620-580q0 59-40.5 99.5T480-440Zm0 360q-83 0-156-31.5T197-197q-54-54-85.5-127T80-480q0-83 31.5-156T197-763q54-54 127-85.5T480-880q83 0 156 31.5T763-763q54 54 85.5 127T880-480q0 83-31.5 156T763-197q-54 54-127 85.5T480-80Zm0-80q53 0 100-15.5t86-44.5q-39-29-86-44.5T480-280q-53 0-100 15.5T294-220q39 29 86 44.5T480-160Zm0-360q26 0 43-17t17-43q0-26-17-43t-43-17q-26 0-43 17t-17 43q0 26 17 43t43 17Zm0-60Zm0 360Z" fill="currentColor"/>
     </symbol>
  </defs>
</svg>
